<svg xmlns="http://www.w3.org/2000/svg" width="24" height="24" fill="currentColor" viewBox="0 0 24 24">
  <path d="M12 2.04c-5.52 0-10 4.48-10 10 0 1.77.46 3.46 1.34 4.97L2 22l5.11-1.34c1.51.87 3.2 1.34 4.89 1.34 5.52 0 10-4.48 10-10s-4.48-10-10-10zm0 18.18c-1.52 0-3.01-.4-4.31-1.14l-.31-.18-3.04.8.81-2.96-.2-.32c-.8-1.31-1.22-2.82-1.22-4.38 0-4.42 3.58-8 8-8s8 3.58 8 8-3.58 8-8 8zm4.25-6.29c-.23-.12-1.36-.67-1.57-.74-.21-.08-.36-.12-.51.12-.15.23-.58.74-.71.89-.13.15-.26.17-.49.06-.23-.12-.96-.35-1.83-1.1-.68-.61-1.14-1.37-1.27-1.6-.13-.23-.01-.36.11-.48.12-.12.23-.26.34-.4.11-.14.15-.23.23-.39.08-.16.04-.3-.02-.42-.06-.12-.51-1.23-.7-1.69-.18-.44-.36-.38-.51-.39-.13 0-.3-.01-.47-.01-.16 0-.42.06-.64.28-.21.22-.83.81-.83 1.96s.85 2.27.98 2.43c.12.16 1.67 2.63 4.07 3.56.57.25 1.02.4 1.37.52.57.18 1.09.16 1.5.1.46-.07 1.36-.56 1.55-1.1.19-.53.19-.98.13-1.1-.05-.12-.21-.19-.44-.3z"/>
</svg>
